<?xml version="1.0" standalone="no"?>
<!DOCTYPE svg PUBLIC "-//W3C//DTD SVG 20010904//EN"
 "http://www.w3.org/TR/2001/REC-SVG-20010904/DTD/svg10.dtd">
<svg version="1.0" xmlns="http://www.w3.org/2000/svg"
 width="1280.000000pt" height="419.000000pt" viewBox="0 0 1280.000000 419.000000"
 preserveAspectRatio="xMidYMid meet">

<g transform="translate(0.000000,419.000000) scale(0.100000,-0.100000)"
fill="#000000" stroke="none">
<path d="M70 2095 l0 -2025 6330 0 6330 0 0 2025 0 2025 -6330 0 -6330 0 0
-2025z m390 0 l0 -1995 -185 0 -185 0 0 1995 0 1995 185 0 185 0 0 -1995z
m12250 0 l0 -1995 -6110 0 -6110 0 0 1995 0 1995 6110 0 6110 0 0 -1995z"/>
<path d="M230 2755 c-6 -8 -10 -20 -7 -27 4 -8 6 -7 6 4 1 23 46 34 67 17 8
-7 14 -24 12 -38 -2 -20 -9 -27 -33 -29 -19 -3 -33 2 -42 14 -12 16 -13 16
-13 1 0 -17 28 -37 54 -37 38 0 62 70 34 98 -17 17 -63 15 -78 -3z"/>
<path d="M210 2600 c0 -22 5 -40 10 -40 6 0 10 9 10 19 0 16 8 21 48 24 l47 3
-47 2 c-35 2 -48 6 -48 17 0 8 -4 15 -10 15 -5 0 -10 -18 -10 -40z"/>
<path d="M220 2530 c0 -5 17 -10 37 -10 l37 0 -42 -31 c-23 -17 -42 -33 -42
-35 0 -2 26 -3 58 -3 53 2 54 2 17 8 l-40 6 38 29 c20 15 37 32 37 37 0 5 -22
9 -50 9 -27 0 -50 -4 -50 -10z"/>
<path d="M218 2414 c-5 -4 -8 -22 -8 -41 l0 -33 55 0 55 0 -2 43 -1 42 -4 -37
c-3 -29 -9 -38 -23 -38 -14 0 -20 9 -23 33 l-4 32 -1 -32 c-3 -47 -30 -44 -34
3 -2 20 -6 32 -10 28z"/>
<path d="M216 2303 c-4 -5 14 -17 39 -29 l48 -20 -47 -18 c-58 -22 -51 -36 17
-34 l52 1 -45 6 -45 7 43 13 c23 8 42 18 42 23 0 4 -19 16 -42 26 l-43 17 45
6 45 6 -51 1 c-28 1 -54 -1 -58 -5z"/>
<path d="M258 2154 c-27 -13 -48 -26 -48 -29 0 -5 56 -30 91 -39 22 -6 22 -6
7 7 -22 17 -23 56 -3 63 15 6 21 24 8 24 -5 -1 -29 -12 -55 -26z m22 -30 c0
-11 -5 -14 -16 -10 -9 3 -18 6 -20 6 -3 0 -2 5 1 10 10 16 35 12 35 -6z"/>
<path d="M310 2035 c0 -23 -4 -25 -45 -25 -25 0 -45 -4 -45 -10 0 -5 23 -10
50 -10 l50 0 0 35 c0 19 -2 35 -5 35 -3 0 -5 -11 -5 -25z"/>
<path d="M310 1935 c0 -28 -4 -35 -19 -35 -15 0 -21 8 -24 33 l-4 32 -1 -32
c-3 -44 -32 -46 -32 -3 0 17 -5 30 -11 30 -6 0 -9 -16 -7 -37 l3 -38 53 -3 52
-3 0 45 c0 26 -2 46 -5 46 -3 0 -5 -16 -5 -35z"/>
<path d="M290 1851 c0 -6 5 -11 10 -11 19 0 10 -49 -10 -60 -23 -12 -60 -5
-60 12 0 6 -3 8 -6 5 -4 -4 -1 -13 6 -22 15 -18 61 -20 78 -3 17 17 15 63 -3
78 -10 9 -15 9 -15 1z"/>
<path d="M220 1835 c0 -8 2 -15 4 -15 2 0 6 7 10 15 3 8 1 15 -4 15 -6 0 -10
-7 -10 -15z"/>
<path d="M220 1729 c0 -4 17 -9 38 -11 l37 -3 -37 -25 c-53 -35 -49 -50 12
-50 58 0 68 17 13 22 l-37 3 37 25 c52 35 48 51 -13 49 -27 -1 -50 -6 -50 -10z"/>
<path d="M285 1610 c-11 -4 -33 -13 -49 -19 -22 -9 -26 -15 -18 -23 16 -16
102 -48 102 -38 0 4 -7 10 -15 14 -20 7 -19 46 3 62 19 15 7 17 -23 4z m-5
-40 c0 -14 -5 -18 -17 -13 -33 12 -37 16 -17 24 30 12 34 10 34 -11z"/>
<path d="M290 1502 c0 -6 5 -14 10 -17 16 -10 12 -52 -6 -59 -25 -10 -42 -7
-58 10 -9 8 -16 12 -16 7 0 -17 24 -33 50 -33 14 0 31 5 38 12 17 17 15 63 -3
78 -9 8 -15 9 -15 2z"/>
<path d="M225 1489 c-4 -6 -5 -12 -2 -15 2 -3 7 2 10 11 7 17 1 20 -8 4z"/>
<path d="M614 3666 c-11 -28 0 -61 21 -61 13 0 22 10 29 33 11 41 36 43 36 2
0 -16 -4 -30 -10 -30 -5 0 -10 -4 -10 -10 0 -5 7 -7 16 -3 10 4 14 16 12 42
-2 28 -8 37 -25 39 -18 3 -24 -3 -31 -29 -4 -18 -13 -34 -20 -37 -16 -5 -16
40 0 56 9 9 9 12 0 12 -7 0 -15 -6 -18 -14z"/>
<path d="M657 3558 c-26 -11 -47 -26 -47 -33 0 -6 17 -17 38 -24 20 -7 44 -15
52 -17 11 -4 10 -1 -2 9 -23 18 -23 53 -1 66 36 19 6 19 -40 -1z m11 -43 c-2
-2 -14 -1 -27 2 l-23 6 23 13 c20 11 25 10 27 -2 2 -9 2 -17 0 -19z"/>
<path d="M617 3453 c-13 -12 -7 -71 7 -76 18 -7 24 0 42 41 7 18 18 31 24 27
13 -8 13 -55 0 -55 -5 0 -10 -4 -10 -10 0 -5 7 -7 16 -3 22 8 15 77 -9 81 -12
3 -22 -7 -32 -32 -20 -47 -39 -48 -32 -1 6 36 5 40 -6 28z"/>
<path d="M612 3307 l-2 -48 52 3 c50 3 52 4 53 35 1 18 -2 38 -7 45 -5 8 -8
-2 -8 -24 0 -31 -4 -38 -19 -38 -15 0 -21 8 -24 33 l-4 32 -1 -32 c-3 -48 -30
-44 -35 5 -3 33 -4 32 -5 -11z"/>
<path d="M617 3233 c-4 -3 -7 -26 -7 -50 l0 -43 50 0 c28 0 50 5 50 10 0 6
-11 10 -25 10 -35 0 -32 23 8 54 34 27 26 36 -10 11 -18 -13 -22 -13 -33 0
-14 16 -23 19 -33 8z m33 -43 c0 -20 -5 -30 -15 -30 -10 0 -15 10 -15 30 0 20
5 30 15 30 10 0 15 -10 15 -30z"/>
<path d="M617 3113 c-4 -3 -7 -24 -7 -45 l0 -38 50 0 c28 0 50 5 50 10 0 6 -9
10 -20 10 -13 0 -20 7 -20 19 0 32 -11 51 -29 51 -10 0 -21 -3 -24 -7z m43
-44 c0 -12 -7 -19 -20 -19 -14 0 -20 7 -20 23 0 13 3 27 7 30 10 11 33 -13 33
-34z"/>
<path d="M610 2995 c0 -8 17 -19 40 -26 22 -7 40 -15 40 -19 0 -4 -18 -12 -40
-19 -59 -17 -53 -41 10 -41 57 0 69 20 13 21 l-38 1 34 12 c48 17 49 31 4 49
l-38 16 38 0 c20 1 37 6 37 11 0 6 -22 10 -50 10 -37 0 -50 -4 -50 -15z"/>
<path d="M700 2836 c0 -29 -4 -36 -19 -36 -15 0 -21 8 -24 33 l-4 32 -1 -32
c-1 -21 -7 -33 -16 -33 -9 0 -16 13 -19 33 -3 27 -4 26 -5 -11 l-2 -43 53 3
52 3 1 38 c0 21 -3 40 -8 43 -4 3 -8 -11 -8 -30z"/>
<path d="M614 2696 c-11 -28 0 -61 21 -61 13 0 22 10 29 33 11 41 36 43 36 2
0 -16 -4 -30 -10 -30 -5 0 -10 -4 -10 -10 0 -5 7 -7 16 -3 22 8 15 77 -9 81
-12 3 -22 -7 -32 -32 -20 -47 -39 -48 -32 -1 6 36 1 47 -9 21z"/>
<path d="M658 2587 c-27 -11 -48 -25 -48 -32 0 -13 89 -49 98 -40 3 2 -3 7
-12 11 -21 8 -21 50 1 63 34 19 7 18 -39 -2z m9 -44 c-3 -3 -16 -2 -28 2 l-22
7 24 14 c20 11 25 10 27 -2 2 -9 1 -18 -1 -21z"/>
<path d="M622 2478 c-7 -7 -12 -29 -12 -51 l0 -38 53 3 52 3 -2 33 c-1 19 -7
40 -14 48 -14 17 -61 18 -77 2z m78 -43 c0 -22 -4 -25 -40 -25 -36 0 -40 2
-40 25 0 17 7 28 23 34 30 12 57 -4 57 -34z"/>
<path d="M2378 2435 c-14 -8 -37 -32 -50 -52 -22 -36 -23 -48 -26 -255 -2
-120 -5 -218 -8 -218 -3 0 -27 11 -54 25 -27 14 -52 25 -55 25 -3 0 -5 -14 -5
-30 l0 -30 -267 2 -267 3 -8 38 c-17 80 -65 145 -138 183 -51 27 -162 25 -216
-3 -84 -45 -134 -131 -133 -233 0 -112 42 -187 134 -237 125 -69 282 -8 341
132 7 19 14 46 14 60 l0 25 270 0 270 0 0 -31 c0 -17 3 -29 8 -27 4 2 31 16
60 31 28 15 52 24 52 21 0 -4 1 -105 3 -225 2 -242 4 -247 77 -296 l33 -23
559 0 c624 0 607 -2 650 69 22 34 23 48 26 259 l3 222 320 0 319 0 0 -30 0
-30 53 27 c28 15 55 29 60 31 4 2 7 -93 7 -210 0 -202 1 -216 22 -258 43 -83
16 -80 653 -80 541 0 561 1 593 20 18 11 41 34 52 52 18 30 20 51 20 256 l0
222 520 0 520 0 0 -30 0 -30 59 29 c32 17 61 27 65 24 3 -4 6 -103 6 -221 0
-245 6 -269 71 -302 37 -19 63 -20 595 -20 546 0 557 0 594 21 70 40 75 56 78
307 l4 222 449 0 449 0 0 -30 0 -30 60 30 60 30 0 -197 c0 -209 8 -263 43
-301 49 -53 35 -52 632 -52 621 0 604 -2 647 69 22 34 23 48 26 259 l3 222
330 0 329 0 0 -23 c0 -36 9 -38 55 -12 52 31 65 31 65 3 0 -65 74 -163 153
-205 46 -25 160 -24 211 1 121 61 182 208 141 340 -59 186 -290 249 -424 115
-37 -37 -81 -121 -81 -156 0 -28 0 -28 -60 2 -27 14 -52 25 -55 25 -3 0 -5
-13 -5 -30 l0 -30 -330 0 -330 0 0 213 c0 240 -9 279 -72 317 -32 19 -49 20
-603 20 -548 0 -571 -1 -602 -20 -62 -37 -68 -61 -71 -302 -2 -120 -6 -218 -8
-218 -3 0 -27 11 -54 25 -27 14 -52 25 -55 25 -3 0 -5 -13 -5 -30 l0 -30 -449
0 -449 0 -4 223 c-3 247 -9 269 -71 307 -31 19 -54 20 -602 20 -548 0 -571 -1
-602 -20 -59 -36 -63 -55 -63 -300 0 -145 -4 -220 -10 -220 -6 0 -33 11 -60
25 -27 14 -52 25 -55 25 -3 0 -5 -13 -5 -30 l0 -30 -520 0 -520 0 0 221 c0
246 -6 275 -64 310 -29 18 -61 19 -608 19 l-577 0 -35 -31 c-20 -17 -40 -47
-46 -67 -5 -20 -10 -128 -10 -239 0 -113 -4 -203 -9 -203 -5 0 -29 11 -52 25
-56 32 -59 31 -59 -5 l0 -30 -320 0 -320 0 0 213 c0 229 -7 265 -60 312 -21
19 -38 20 -604 22 -493 2 -585 0 -608 -12z m1208 -48 l35 -37 -3 -469 c-3
-453 -4 -470 -23 -491 -44 -50 -48 -50 -617 -49 -574 0 -584 1 -622 52 -20 28
-21 40 -24 483 -3 502 -4 495 61 535 31 19 50 19 595 17 l564 -3 34 -38z
m2081 23 c64 -38 63 -33 63 -527 l0 -448 -25 -37 c-17 -25 -37 -40 -63 -47
-55 -16 -1076 -14 -1122 2 -19 7 -44 27 -57 46 l-23 34 0 454 c0 410 2 458 17
484 35 59 26 59 628 59 528 0 551 -1 582 -20z m2525 -18 l33 -32 3 -463 3
-463 -24 -35 c-13 -19 -37 -39 -57 -46 -25 -9 -182 -12 -568 -12 -588 -1 -584
-1 -622 61 -19 32 -20 49 -20 490 l0 456 27 32 c14 18 36 36 47 40 12 5 274 8
583 7 l563 -2 32 -33z m2370 0 l33 -32 3 -463 c2 -450 2 -463 -18 -495 -38
-62 -34 -62 -622 -61 -386 0 -543 3 -568 12 -19 7 -44 27 -57 46 l-23 34 0
451 c0 341 3 457 13 476 7 13 28 35 46 47 l35 23 563 -2 563 -3 32 -33z
m-9073 -291 c122 -63 166 -222 94 -340 -69 -112 -202 -141 -310 -68 -150 101
-126 340 42 413 45 20 130 17 174 -5z m10284 -24 c116 -68 140 -232 50 -337
-47 -54 -84 -72 -154 -73 -227 -2 -291 326 -84 425 55 26 128 20 188 -15z"/>
<path d="M2434 2365 c-20 -30 -14 -41 14 -26 11 6 22 8 24 5 3 -2 19 -9 37
-14 37 -10 43 8 11 40 -28 28 -66 26 -86 -5z"/>
<path d="M2592 2194 c-1 -17 -5 -59 -8 -93 l-7 -61 30 0 c36 0 58 22 48 47 -5
10 -7 28 -6 41 2 17 -3 22 -23 22 -21 0 -25 5 -29 38 -3 33 -4 34 -5 6z m48
-69 c0 -9 -9 -15 -25 -15 -18 0 -23 4 -19 15 4 8 15 15 25 15 10 0 19 -7 19
-15z m-10 -35 c25 -14 15 -40 -16 -40 -19 0 -24 5 -24 25 0 27 10 31 40 15z"/>
<path d="M2681 2093 c1 -32 4 -46 6 -30 6 35 36 36 59 2 9 -14 20 -25 25 -25
5 0 2 11 -7 25 -13 20 -14 28 -4 40 21 26 4 45 -40 45 l-40 0 1 -57z m75 36
c3 -6 0 -15 -7 -20 -21 -14 -53 -6 -57 14 -3 13 3 17 27 17 16 0 33 -5 37 -11z"/>
<path d="M2800 2095 l0 -55 43 2 42 1 -38 4 c-33 4 -38 7 -35 26 2 15 12 24
33 28 l30 7 -32 1 c-22 1 -33 6 -33 15 0 9 13 16 33 19 31 4 31 4 -5 5 l-38 2
0 -55z"/>
<path d="M2956 2117 c-7 -19 -17 -45 -20 -58 -6 -20 -5 -21 4 -6 14 22 70 24
70 2 0 -8 4 -15 9 -15 5 0 -1 25 -12 55 -12 30 -25 55 -29 55 -4 0 -14 -15
-22 -33z m30 -24 c-10 -25 -26 -2 -19 26 5 20 7 21 15 7 5 -10 7 -24 4 -33z"/>
<path d="M3082 2098 l-2 -58 33 1 c29 2 30 2 5 6 -25 4 -27 9 -31 56 l-3 52
-2 -57z"/>
<path d="M3173 2095 c0 -33 2 -45 4 -27 2 18 2 45 0 60 -2 15 -4 0 -4 -33z"/>
<path d="M3217 2143 c-16 -15 -5 -35 28 -49 19 -8 35 -19 35 -24 0 -17 -31
-24 -51 -11 -11 6 -19 7 -19 2 0 -14 37 -23 60 -16 33 10 24 43 -16 60 -39 16
-38 40 2 32 13 -2 24 0 24 4 0 10 -54 12 -63 2z"/>
<path d="M3323 2143 c19 -5 20 -10 17 -65 -1 -22 3 -38 9 -38 6 0 11 21 11 49
0 39 4 51 18 54 9 3 -3 5 -28 5 -25 0 -37 -2 -27 -5z"/>
<path d="M3423 2133 c-3 -10 -12 -33 -20 -52 -7 -19 -11 -36 -8 -39 2 -3 7 3
11 12 8 21 64 22 64 1 0 -8 4 -15 10 -15 5 0 1 23 -10 50 -11 28 -20 53 -20
55 0 13 -21 3 -27 -12z m24 -45 c-18 -11 -27 4 -20 31 l6 23 13 -23 c9 -18 9
-26 1 -31z"/>
<path d="M2484 2103 c-3 -10 -10 -28 -15 -40 -5 -15 -5 -23 1 -23 6 0 10 7 10
15 0 21 49 19 67 -2 14 -17 14 -17 8 2 -4 11 -10 30 -12 43 -6 26 -25 30 -21
5 2 -11 -3 -18 -12 -18 -9 0 -14 7 -12 18 2 9 0 17 -3 17 -3 0 -8 -8 -11 -17z"/>
<path d="M2718 1952 c-15 -3 -18 -14 -18 -58 l0 -54 48 2 c43 1 44 2 10 5 -32
4 -38 8 -38 28 0 19 6 24 33 28 l32 4 -32 1 c-45 3 -46 32 -1 32 17 0 28 3 24
7 -8 8 -34 10 -58 5z"/>
<path d="M2590 1895 c0 -54 0 -55 29 -55 37 0 61 23 61 59 0 36 -17 51 -57 51
l-33 0 0 -55z m76 18 c9 -34 -7 -58 -37 -58 -21 0 -24 5 -27 43 -3 41 -2 42
27 42 25 0 32 -5 37 -27z"/>
<path d="M2856 1930 c3 -14 11 -32 16 -40 6 -10 7 -7 2 10 -3 14 -11 32 -16
40 -6 10 -7 7 -2 -10z"/>
<path d="M2927 1943 c-2 -4 -10 -25 -16 -46 -7 -20 -17 -35 -22 -32 -5 4 -9 2
-9 -4 0 -5 4 -12 9 -15 9 -6 55 94 47 101 -2 2 -6 1 -9 -4z"/>
<path d="M2961 1909 c-7 -23 -15 -48 -17 -58 -5 -13 -4 -13 6 2 14 22 70 24
70 2 0 -8 4 -15 9 -15 5 0 -1 25 -12 55 -12 30 -27 55 -33 55 -6 0 -16 -18
-23 -41z m39 -6 c0 -7 -7 -13 -16 -13 -11 0 -14 5 -10 16 3 9 6 21 6 27 0 16
20 -14 20 -30z"/>
<path d="M3060 1931 c-26 -49 12 -100 65 -87 34 9 37 57 3 55 -17 -1 -19 -2
-5 -6 22 -6 22 -29 1 -37 -42 -16 -75 24 -54 64 12 22 49 27 69 8 10 -11 11
-10 6 5 -10 25 -71 23 -85 -2z"/>
<path d="M3187 1903 c-19 -53 -22 -77 -6 -50 5 9 21 17 34 17 13 0 29 -8 34
-17 18 -31 12 3 -9 51 -10 25 -23 46 -28 46 -4 0 -16 -21 -25 -47z m43 -5 c0
-5 -7 -8 -15 -8 -15 0 -20 21 -8 33 7 7 23 -11 23 -25z"/>
<path d="M3287 1943 c-16 -15 -5 -34 28 -47 19 -8 35 -20 35 -26 0 -17 -27
-22 -52 -10 -22 12 -22 11 -6 -5 22 -24 68 -13 68 16 0 14 -11 25 -35 35 -42
17 -37 39 7 30 18 -3 27 -2 23 4 -7 11 -58 14 -68 3z"/>
<path d="M2569 1738 c-3 -36 0 -90 5 -96 3 -3 6 4 6 16 0 15 7 22 26 24 35 4
53 31 35 52 -16 19 -71 21 -72 4z m61 -17 c0 -17 -18 -31 -41 -31 -5 0 -9 11
-9 25 0 20 5 25 25 25 18 0 25 -5 25 -19z"/>
<path d="M2688 1739 c-21 -12 -24 -69 -6 -87 19 -19 66 -15 78 7 31 59 -18
112 -72 80z m63 -20 c8 -16 8 -28 0 -45 -18 -41 -71 -25 -71 21 0 44 50 61 71
24z"/>
<path d="M2800 1736 c-16 -20 1 -43 33 -48 31 -4 35 -38 5 -38 -13 0 -30 6
-37 13 -11 10 -13 9 -9 -3 3 -10 17 -15 39 -15 29 0 34 3 34 25 0 17 -7 26
-25 30 -30 7 -41 40 -13 40 11 0 25 -6 32 -12 11 -11 13 -10 9 2 -6 21 -52 24
-68 6z"/>
<path d="M2907 1743 c19 -4 23 -12 26 -56 l3 -52 2 52 c2 40 6 53 20 56 9 3
-3 5 -28 4 -25 0 -35 -2 -23 -4z"/>
<path d="M2993 1695 c-12 -30 -17 -55 -13 -55 4 0 10 7 14 15 7 20 52 19 60
-1 4 -9 9 -15 11 -12 7 7 -36 108 -45 108 -4 0 -16 -25 -27 -55z m46 -7 c1 -5
-8 -8 -19 -8 -23 0 -24 4 -8 33 11 21 11 21 19 2 4 -11 8 -23 8 -27z"/>
<path d="M3090 1695 l0 -55 35 0 c24 0 37 6 45 19 25 47 0 91 -51 91 -29 0
-29 -1 -29 -55z m71 24 c16 -31 -3 -69 -36 -69 -23 0 -25 4 -25 45 0 41 2 45
25 45 15 0 29 -8 36 -21z"/>
<path d="M3216 1703 c-18 -53 -20 -77 -5 -50 13 22 55 22 63 1 4 -9 9 -15 11
-12 7 7 -36 108 -45 108 -5 0 -15 -21 -24 -47z m34 18 c0 -5 3 -16 6 -25 4
-12 0 -16 -16 -16 -16 0 -20 4 -16 16 3 9 6 20 6 25 0 5 5 9 10 9 6 0 10 -4
10 -9z"/>
<path d="M3317 1743 c-18 -17 -5 -42 28 -53 19 -6 35 -16 35 -21 0 -17 -32
-23 -52 -10 -16 10 -19 10 -16 -1 3 -7 19 -13 39 -13 47 0 48 34 1 54 -18 8
-31 20 -29 25 5 15 47 20 47 7 0 -6 5 -11 11 -11 8 0 8 5 -1 15 -13 15 -51 20
-63 8z"/>
<path d="M4547 2372 c-25 -27 -22 -43 6 -33 16 6 34 4 60 -9 39 -19 45 -13 26
23 -22 41 -64 50 -92 19z"/>
<path d="M4678 2298 c-3 -38 0 -57 10 -68 8 -8 12 -10 8 -3 -4 8 6 13 31 16
l38 4 -38 1 c-34 2 -38 5 -35 24 2 16 12 25 33 29 l30 7 -32 1 c-22 1 -33 6
-33 15 0 9 13 16 33 19 l32 4 -37 1 -36 2 -4 -52z"/>
<path d="M4782 2298 l-2 -58 38 1 c36 1 36 2 7 8 -27 6 -31 10 -36 56 l-6 50
-1 -57z"/>
<path d="M4870 2295 l0 -55 43 2 42 1 -38 4 c-32 4 -38 8 -35 25 2 14 11 22
25 23 36 3 40 15 5 15 -47 0 -42 28 6 33 l37 4 -42 1 -43 2 0 -55z"/>
<path d="M4980 2331 c-15 -30 -12 -56 10 -76 24 -21 70 -13 70 13 -1 16 -1 16
-11 0 -26 -46 -83 7 -58 54 8 16 17 19 40 14 19 -3 28 -2 24 4 -11 18 -64 11
-75 -9z"/>
<path d="M5093 2295 c0 -33 2 -45 4 -27 2 18 2 45 0 60 -2 15 -4 0 -4 -33z"/>
<path d="M5139 2326 c-25 -55 20 -103 70 -76 24 12 29 68 9 88 -22 22 -67 15
-79 -12z m71 0 c28 -35 -11 -93 -47 -70 -36 22 -23 84 17 84 10 0 23 -7 30
-14z"/>
<path d="M5262 2293 l1 -58 6 44 6 45 28 -42 c15 -23 29 -42 32 -42 3 0 4 26
3 58 l-1 57 -6 -44 -6 -45 -28 42 c-15 23 -29 42 -32 42 -3 0 -4 -26 -3 -57z"/>
<path d="M5381 2298 c-12 -28 -19 -53 -16 -56 2 -3 7 3 11 12 8 21 64 22 64 1
0 -8 4 -15 10 -15 5 0 1 23 -10 50 -11 28 -20 53 -20 55 0 3 -4 5 -9 5 -4 0
-18 -23 -30 -52z m39 1 c0 -20 -15 -26 -24 -10 -8 13 4 42 15 35 5 -3 9 -14 9
-25z"/>
<path d="M5530 2345 c0 -2 -9 -27 -20 -55 -11 -27 -15 -50 -10 -50 6 0 10 7
10 15 0 21 56 20 64 -1 4 -9 9 -15 11 -12 7 7 -36 108 -46 108 -5 0 -9 -2 -9
-5z m23 -35 c5 -21 -7 -35 -22 -26 -10 7 -3 46 9 46 4 0 10 -9 13 -20z"/>
<path d="M4626 2283 c-4 -10 -4 -14 0 -10 4 4 13 -1 20 -11 12 -15 12 -15 7 6
-7 29 -19 36 -27 15z"/>
<path d="M4876 2131 c12 -48 35 -92 44 -86 6 3 10 11 10 17 0 6 -3 8 -7 4 -4
-4 -18 15 -30 41 -13 26 -20 37 -17 24z"/>
<path d="M4946 2135 c-9 -26 -7 -32 5 -12 6 10 9 21 6 23 -2 3 -7 -2 -11 -11z"/>
<path d="M4981 2099 c-13 -28 -20 -53 -17 -56 3 -3 8 2 12 11 8 21 64 22 64 1
0 -8 4 -15 10 -15 5 0 1 23 -10 50 -11 28 -20 53 -20 55 0 3 -4 5 -9 5 -5 0
-18 -23 -30 -51z m35 -5 c-4 -12 -10 -14 -17 -7 -5 5 -7 17 -3 27 4 12 10 14
17 7 5 -5 7 -17 3 -27z"/>
<path d="M5078 2125 c-8 -19 -8 -31 0 -50 14 -31 33 -39 67 -31 34 9 36 57 3
55 -17 -1 -19 -2 -5 -6 19 -5 23 -28 6 -38 -18 -11 -57 4 -64 25 -14 45 41 80
74 48 10 -11 11 -10 6 5 -5 11 -18 17 -41 17 -27 0 -37 -5 -46 -25z"/>
<path d="M5211 2109 c-7 -23 -15 -48 -17 -58 -5 -13 -4 -13 6 2 6 9 22 17 35
17 13 0 29 -8 34 -17 16 -27 13 -3 -6 50 -9 26 -22 47 -28 47 -7 0 -17 -18
-24 -41z m31 -21 c-17 -17 -25 -3 -17 29 l7 28 11 -23 c7 -16 7 -26 -1 -34z"/>
<path d="M4616 1953 c-3 -4 -6 -30 -6 -60 0 -52 1 -53 29 -53 76 0 84 101 9
114 -14 2 -29 2 -32 -1z m62 -25 c27 -27 1 -78 -39 -78 -16 0 -19 7 -19 45 0
40 2 45 23 45 13 0 28 -5 35 -12z"/>
<path d="M4732 1952 c-7 -2 -12 -26 -12 -58 l0 -54 43 2 c36 1 38 2 10 5 -27
4 -33 9 -33 28 0 19 6 24 33 28 l32 4 -32 1 c-21 1 -33 7 -33 16 0 9 12 16 33
18 l32 3 -31 6 c-17 3 -36 3 -42 1z"/>
<path d="M4965 1951 c-28 -6 -29 -8 -30 -59 l0 -52 40 2 c37 1 37 2 8 5 -27 4
-33 9 -33 28 0 19 6 24 33 28 l32 4 -32 1 c-21 1 -33 7 -33 16 0 9 12 16 33
18 17 2 28 6 22 9 -5 3 -23 3 -40 0z"/>
<path d="M5225 1952 c-3 -3 -5 -29 -5 -59 l0 -53 34 0 c43 0 58 19 54 67 -3
35 -6 38 -40 44 -21 3 -40 4 -43 1z m73 -45 c4 -33 -13 -57 -39 -57 -16 0 -19
8 -19 46 0 44 1 45 28 42 21 -2 28 -9 30 -31z"/>
<path d="M5485 1951 c-3 -2 -5 -28 -5 -58 l0 -53 43 2 42 1 -38 4 c-33 4 -38
7 -35 26 2 15 12 24 33 28 l30 7 -32 1 c-45 1 -46 31 -1 31 17 0 28 3 25 7 -8
8 -56 11 -62 4z"/>
<path d="M4837 1943 c-16 -15 -5 -35 28 -49 19 -8 35 -18 35 -23 0 -16 -40
-23 -55 -11 -10 9 -15 9 -15 1 0 -17 48 -25 65 -11 24 20 17 40 -20 56 -43 18
-46 38 -5 32 17 -3 30 -1 30 4 0 10 -54 11 -63 1z"/>
<path d="M5082 1908 c-2 -51 -15 -67 -38 -47 -12 10 -13 9 -8 -5 8 -20 43 -21
50 -2 3 7 4 33 1 57 l-4 44 -1 -47z"/>
<path d="M5136 1917 c-7 -19 -17 -45 -20 -58 -6 -22 -6 -22 7 -6 18 21 67 23
67 2 0 -8 4 -15 9 -15 5 0 -1 25 -12 55 -12 30 -25 55 -29 55 -4 0 -14 -15
-22 -33z m34 -13 c0 -8 -7 -14 -15 -14 -17 0 -18 2 -9 24 7 18 24 12 24 -10z"/>
<path d="M5351 1909 c-7 -23 -15 -48 -17 -58 -5 -13 -4 -13 6 2 6 9 22 17 35
17 13 0 29 -8 34 -17 16 -27 13 -3 -6 50 -9 26 -22 47 -28 47 -7 0 -17 -18
-24 -41z m39 -6 c0 -7 -7 -13 -15 -13 -16 0 -19 9 -9 35 5 13 8 14 15 3 5 -7
9 -19 9 -25z"/>
<path d="M4735 1726 c-14 -21 -15 -29 -3 -53 15 -33 58 -43 78 -19 15 19 7 21
-19 4 -30 -18 -51 -3 -51 37 0 41 21 55 52 36 16 -10 19 -10 16 1 -3 7 -16 14
-31 16 -19 2 -30 -4 -42 -22z"/>
<path d="M4842 1698 l-2 -58 38 2 c36 1 36 1 5 5 -31 4 -32 6 -36 56 l-3 52
-2 -57z"/>
<path d="M4933 1695 c0 -33 2 -45 4 -27 2 18 2 45 0 60 -2 15 -4 0 -4 -33z"/>
<path d="M4986 1734 c-20 -19 -21 -68 -2 -83 19 -16 68 -10 74 9 4 12 2 13 -9
3 -32 -31 -76 -2 -65 42 8 31 32 42 57 26 11 -6 19 -7 19 -2 0 23 -53 27 -74
5z"/>
<path d="M5106 1718 c-7 -18 -17 -44 -20 -58 -6 -21 -5 -22 4 -7 6 9 22 17 35
17 13 0 29 -8 34 -17 8 -14 10 -15 10 -3 0 8 -6 26 -14 40 -11 19 -14 21 -15
8 0 -18 -30 -26 -30 -9 0 20 13 41 21 35 5 -3 9 -1 9 5 0 26 -22 19 -34 -11z"/>
<path d="M5230 1695 l0 -55 43 2 42 1 -37 4 c-30 3 -38 9 -38 24 0 15 7 19 33
20 l32 1 -30 7 c-16 3 -31 14 -33 23 -2 13 6 18 35 21 l38 4 -42 1 -43 2 0
-55z"/>
<path d="M5332 1693 l1 -58 7 45 6 45 12 -30 c7 -16 15 -36 17 -43 5 -14 25
-7 25 9 0 6 -4 8 -9 5 -5 -4 -16 13 -23 36 -22 64 -38 60 -36 -9z"/>
<path d="M5413 1734 c-3 -9 -1 -19 5 -23 6 -3 12 -22 15 -41 3 -24 4 -18 5 23
2 55 -11 76 -25 41z"/>
<path d="M4750 1495 l0 -55 43 2 42 1 -37 4 c-30 3 -38 9 -38 24 0 15 7 19 33
20 l32 1 -30 7 c-16 3 -31 14 -33 23 -2 13 6 18 35 21 l38 4 -42 1 -43 2 0
-55z"/>
<path d="M4861 1545 c0 -5 6 -19 14 -29 13 -17 12 -22 -6 -47 -11 -16 -17 -29
-12 -29 4 0 14 9 21 21 l13 21 26 -23 26 -24 -18 32 c-18 30 -18 32 0 60 l18
28 -25 -23 -25 -23 -16 23 c-9 13 -16 19 -16 13z"/>
<path d="M4978 1539 c-21 -12 -24 -69 -6 -87 24 -24 79 -8 78 23 0 5 -5 2 -11
-7 -21 -37 -74 -11 -67 33 4 32 33 47 58 31 11 -7 20 -8 20 -3 0 20 -45 26
-72 10z"/>
<path d="M5082 1498 l-2 -58 33 1 c29 2 30 2 5 6 -25 4 -27 9 -31 56 l-3 52
-2 -57z"/>
<path d="M5160 1514 c0 -47 16 -74 43 -74 35 0 47 19 46 70 -2 31 -3 36 -6 15
-8 -67 -13 -76 -36 -73 -19 3 -22 10 -25 51 -4 54 -22 64 -22 11z"/>
<path d="M5283 1495 c0 -33 2 -45 4 -27 2 18 2 45 0 60 -2 15 -4 0 -4 -33z"/>
<path d="M5321 1493 c1 -32 4 -48 6 -35 7 37 33 39 60 6 12 -16 23 -24 23 -18
0 5 -5 15 -11 21 -8 8 -7 16 2 30 20 33 5 53 -41 53 l-40 0 1 -57z m74 27 c0
-10 -12 -16 -32 -18 -32 -3 -45 13 -26 32 13 12 58 2 58 -14z"/>
<path d="M7050 2384 c0 -11 -6 -15 -20 -11 -23 6 -43 -14 -34 -37 4 -10 0 -18
-10 -22 -20 -8 -21 -40 -1 -48 8 -3 14 -15 12 -28 -2 -18 3 -23 23 -23 17 0
26 -7 28 -20 6 -31 23 -46 43 -40 12 4 21 1 25 -9 8 -20 33 -21 41 -1 3 9 13
15 22 13 9 -1 22 1 28 5 9 6 11 3 7 -10 -5 -17 -5 -17 9 0 18 21 67 23 67 2 0
-8 4 -15 10 -15 5 0 0 24 -11 53 -23 59 -26 63 -36 53 -4 -4 -3 -10 3 -14 6
-4 13 -15 17 -24 5 -13 1 -18 -12 -18 -14 0 -18 5 -14 19 3 12 -4 28 -17 41
-12 12 -19 28 -16 35 6 16 -16 37 -34 33 -7 -2 -20 11 -30 27 -12 21 -23 29
-38 27 -15 -2 -22 2 -22 12 0 9 -9 16 -20 16 -12 0 -20 -7 -20 -16z m37 -20
c9 -8 22 -13 29 -10 19 7 17 -1 -5 -23 -11 -11 -22 -17 -25 -14 -11 11 -34
-18 -29 -37 3 -11 1 -20 -5 -20 -17 0 -24 19 -18 46 5 19 13 24 39 24 27 1 29
2 14 11 -14 8 -24 6 -43 -6 -22 -14 -25 -23 -22 -58 2 -23 -1 -43 -7 -44 -5
-1 -8 6 -7 15 2 9 -4 22 -13 28 -16 12 -16 14 0 30 9 9 14 25 12 36 -4 15 -1
18 13 13 10 -3 24 1 32 9 16 19 16 19 35 0z m93 -64 c12 0 17 -5 14 -14 -3 -7
3 -21 12 -31 14 -13 14 -19 4 -25 -7 -4 -12 -20 -12 -34 0 -19 -5 -26 -14 -22
-8 3 -22 -2 -32 -12 -16 -16 -18 -16 -34 0 -10 10 -24 15 -32 12 -9 -4 -13 3
-13 22 0 14 -6 30 -13 34 -10 6 -10 12 4 25 9 10 14 25 11 35 -5 14 -2 17 13
13 11 -2 26 2 33 10 11 12 16 12 27 0 7 -7 22 -13 32 -13z m46 -117 c-11 -11
-19 6 -11 24 8 17 8 17 12 0 3 -10 2 -21 -1 -24z"/>
<path d="M7094 2265 c-30 -45 13 -99 61 -77 32 15 40 47 21 77 -22 33 -60 33
-82 0z m70 -4 c30 -33 -7 -79 -46 -59 -31 16 -17 78 17 78 7 0 20 -9 29 -19z"/>
<path d="M7430 2249 c-19 -3 -27 -7 -18 -8 13 -1 18 -13 21 -53 l3 -53 2 52
c2 45 5 52 25 55 12 2 18 6 12 9 -5 3 -26 2 -45 -2z"/>
<path d="M7332 2198 l-2 -58 33 1 c29 2 30 2 5 6 -25 4 -27 9 -31 56 l-3 52
-2 -57z"/>
<path d="M7500 2195 l0 -55 43 2 42 1 -38 4 c-33 4 -38 7 -35 26 2 15 12 24
33 28 l30 7 -32 1 c-22 1 -33 6 -33 15 0 9 13 16 33 19 31 4 31 4 -5 5 l-38 2
0 -55z"/>
<path d="M7600 2194 c0 -34 4 -53 10 -49 6 3 10 15 10 26 0 27 26 24 46 -6 20
-30 31 -26 14 5 -9 16 -9 25 0 36 21 25 4 44 -40 44 l-40 0 0 -56z m75 26 c0
-19 -45 -26 -56 -9 -12 20 0 30 29 27 16 -2 27 -9 27 -18z"/>
<path d="M7731 2209 c-7 -23 -15 -48 -17 -58 -5 -13 -4 -13 6 2 15 23 70 23
70 0 0 -9 3 -14 6 -10 10 9 -28 107 -41 107 -7 0 -17 -18 -24 -41z m39 -6 c0
-7 -7 -13 -16 -13 -11 0 -14 5 -10 16 3 9 6 21 6 27 0 16 20 -14 20 -30z"/>
<path d="M7870 2235 c-16 -20 -16 -61 0 -80 36 -43 106 17 82 69 -13 30 -61
36 -82 11z m68 -37 c3 -30 -1 -38 -18 -43 -28 -9 -50 11 -50 45 0 34 8 42 40
38 21 -3 25 -9 28 -40z"/>
<path d="M7178 2049 c-28 -16 -21 -37 18 -54 20 -8 34 -20 32 -27 -7 -21 -41
-22 -55 -2 -11 15 -13 16 -13 2 0 -20 32 -32 60 -23 33 10 24 43 -16 60 -19 8
-33 19 -29 25 8 14 38 13 53 -2 9 -9 12 -9 12 0 0 6 -9 16 -19 22 -23 12 -22
12 -43 -1z"/>
<path d="M7265 2050 c-3 -5 1 -10 9 -10 12 0 16 -11 16 -44 0 -25 5 -48 10
-51 6 -4 10 13 10 44 0 39 4 51 15 51 8 0 15 5 15 10 0 6 -15 10 -34 10 -19 0
-38 -4 -41 -10z"/>
<path d="M7440 2050 c0 -5 7 -10 15 -10 11 0 15 -12 15 -51 0 -31 4 -48 10
-44 6 3 10 26 10 51 0 33 4 44 16 44 8 0 12 5 9 10 -3 6 -22 10 -41 10 -19 0
-34 -4 -34 -10z"/>
<path d="M7678 2053 c-30 -7 -22 -43 12 -56 17 -6 30 -17 30 -25 0 -18 -29
-27 -43 -13 -17 17 -31 13 -17 -4 18 -21 57 -19 70 4 8 16 6 23 -12 35 -12 9
-28 16 -35 16 -7 0 -13 7 -13 15 0 18 46 21 53 3 4 -10 6 -10 6 -1 1 16 -29
31 -51 26z"/>
<path d="M7807 2054 c-4 -4 -7 -31 -7 -61 l0 -53 33 0 c18 0 38 5 45 12 13 13
16 66 4 85 -10 15 -64 28 -75 17z m71 -47 c4 -32 -13 -57 -38 -57 -13 0 -19
10 -22 34 -5 48 0 58 31 54 20 -2 27 -9 29 -31z"/>
<path d="M7945 2048 c-26 -71 -34 -102 -30 -106 3 -3 5 0 5 6 0 6 9 16 20 22
16 8 24 6 41 -11 l22 -22 -6 25 c-9 34 -36 98 -42 98 -3 0 -8 -6 -10 -12z m25
-45 c0 -7 -7 -13 -16 -13 -11 0 -14 5 -10 16 3 9 6 21 6 27 0 16 20 -14 20
-30z"/>
<path d="M7365 2008 c-27 -66 -28 -75 -11 -54 23 28 57 31 63 6 3 -11 9 -20
14 -20 5 0 0 23 -11 50 -11 28 -20 53 -20 55 0 3 -4 5 -9 5 -5 0 -17 -19 -26
-42z m38 2 c4 -15 0 -20 -13 -20 -13 0 -17 5 -13 20 3 11 9 20 13 20 4 0 10
-9 13 -20z"/>
<path d="M7542 2010 c-1 -26 3 -51 10 -58 18 -18 56 -14 68 7 13 25 13 91 0
91 -5 0 -10 -20 -10 -45 0 -79 -55 -71 -63 8 l-4 42 -1 -45z"/>
<path d="M7160 1799 c20 -53 27 -65 34 -58 11 11 45 109 37 109 -5 0 -14 -20
-21 -45 -7 -25 -16 -45 -20 -45 -4 0 -13 20 -20 45 -7 25 -16 45 -21 45 -5 0
0 -23 11 -51z"/>
<path d="M7261 1809 c-7 -23 -15 -48 -17 -58 -5 -13 -4 -13 6 2 6 9 20 17 32
17 11 0 27 -8 35 -17 13 -16 13 -16 7 6 -12 44 -34 91 -43 91 -4 0 -13 -18
-20 -41z m39 -16 c0 -7 -7 -13 -15 -13 -15 0 -21 31 -8 43 8 8 23 -12 23 -30z"/>
<path d="M7362 1838 c-17 -17 -15 -73 2 -87 22 -19 80 -10 84 13 5 25 -14 44
-30 28 -9 -9 -8 -12 6 -12 27 0 13 -25 -16 -28 -30 -4 -51 19 -46 49 5 32 33
47 59 31 18 -11 20 -11 17 0 -6 17 -60 22 -76 6z"/>
<path d="M7485 1799 c-9 -28 -14 -53 -11 -56 3 -4 6 1 6 10 0 23 48 22 67 0 8
-11 5 3 -7 37 -11 30 -20 56 -20 58 0 1 -4 2 -9 2 -5 0 -17 -23 -26 -51z m44
-11 c1 -5 -6 -8 -14 -8 -15 0 -21 31 -8 44 7 6 20 -17 22 -36z"/>
<path d="M7617 1843 c-11 -10 -8 -103 3 -103 6 0 10 8 10 19 0 12 9 20 29 24
32 7 47 33 30 53 -12 14 -60 19 -72 7z m63 -22 c0 -20 -17 -31 -37 -24 -7 3
-13 13 -13 24 0 14 7 19 25 19 18 0 25 -5 25 -19z"/>
<path d="M7726 1817 c-7 -19 -17 -45 -20 -58 -6 -22 -6 -22 7 -6 8 9 24 17 35
17 12 0 26 -8 31 -17 6 -10 11 -13 11 -6 0 15 -38 103 -45 103 -2 0 -11 -15
-19 -33z m34 -24 c0 -7 -7 -13 -15 -13 -16 0 -19 9 -9 35 5 13 8 14 15 3 5 -7
9 -19 9 -25z"/>
<path d="M7811 1793 c1 -32 4 -48 6 -35 7 36 32 39 59 6 25 -31 32 -27 12 6
-11 17 -10 22 0 29 8 5 12 17 10 27 -2 14 -13 20 -46 22 l-42 3 1 -58z m74 27
c0 -23 -59 -20 -63 3 -3 15 2 18 30 15 21 -2 33 -8 33 -18z"/>
<path d="M7941 1809 c-7 -23 -15 -48 -17 -58 -5 -13 -4 -13 6 2 6 9 22 17 35
17 13 0 29 -8 35 -17 9 -15 10 -14 4 7 -12 45 -33 90 -42 90 -5 0 -14 -18 -21
-41z m39 -16 c0 -7 -7 -13 -15 -13 -16 0 -19 9 -9 35 5 13 8 14 15 3 5 -7 9
-19 9 -25z"/>
<path d="M7217 1643 c-9 -15 -6 -103 3 -103 6 0 10 11 10 24 0 19 6 26 28 29
l27 4 -27 2 c-21 1 -28 6 -28 20 0 15 8 21 33 24 l32 4 -37 1 c-20 1 -39 -1
-41 -5z"/>
<path d="M7310 1595 l0 -55 43 2 42 1 -37 4 c-30 3 -38 9 -38 24 0 15 7 19 33
20 l32 1 -30 7 c-16 3 -31 14 -33 23 -2 13 6 18 35 21 l38 4 -42 1 -43 2 0
-55z"/>
<path d="M7426 1635 c-18 -19 -21 -48 -6 -76 13 -23 62 -26 80 -4 8 9 9 15 2
15 -6 0 -14 -4 -17 -10 -11 -18 -45 -11 -54 12 -17 47 13 83 51 59 16 -10 19
-10 16 1 -7 19 -53 21 -72 3z"/>
<path d="M7532 1595 c1 -33 3 -48 5 -32 4 22 9 27 34 27 24 0 29 -4 29 -25 0
-14 4 -25 9 -25 12 0 13 98 1 105 -6 3 -10 -5 -10 -20 0 -23 -4 -26 -27 -23
-19 2 -29 10 -34 28 -5 16 -7 4 -7 -35z"/>
<path d="M7657 1603 c-19 -53 -22 -78 -6 -50 13 22 55 22 63 1 4 -9 9 -15 11
-12 7 6 -31 102 -42 105 -5 2 -17 -18 -26 -44z m39 -21 c-3 -2 -12 -2 -21 2
-13 5 -14 10 -4 28 l12 22 9 -23 c5 -13 6 -26 4 -29z"/>
<path d="M7750 1595 l0 -55 33 0 c41 0 57 15 57 55 0 40 -16 55 -57 55 l-33 0
0 -55z m68 33 c29 -29 7 -78 -35 -78 -21 0 -23 5 -23 45 0 40 2 45 23 45 13 0
28 -5 35 -12z"/>
<path d="M7875 1600 c-9 -28 -14 -54 -11 -57 3 -4 6 1 6 10 0 23 55 23 64 1 4
-9 9 -15 11 -12 7 7 -31 102 -43 106 -5 1 -18 -20 -27 -48z m45 -7 c0 -7 -7
-13 -15 -13 -15 0 -21 31 -8 43 8 8 23 -12 23 -30z"/>
<path d="M9417 2372 c-23 -25 -22 -46 1 -37 22 9 30 9 70 -4 31 -9 33 -9 26
12 -13 46 -67 62 -97 29z"/>
<path d="M9552 2293 c1 -50 2 -52 5 -15 2 23 7 42 11 42 4 0 17 -18 30 -40 12
-22 27 -40 32 -40 6 0 9 26 8 58 l-1 57 -6 -45 -6 -45 -29 43 c-16 23 -33 42
-37 42 -5 0 -8 -26 -7 -57z"/>
<path d="M9670 2331 c-15 -30 -12 -56 10 -76 45 -41 110 18 76 70 -21 31 -70
35 -86 6z m78 -24 c6 -54 -48 -80 -69 -33 -16 35 4 68 39 64 21 -2 28 -9 30
-31z"/>
<path d="M9797 2343 c19 -4 23 -12 26 -56 l3 -52 2 52 c2 40 6 53 20 56 9 3
-3 5 -28 4 -25 0 -35 -2 -23 -4z"/>
<path d="M9893 2295 c0 -33 2 -45 4 -27 2 18 2 45 0 60 -2 15 -4 0 -4 -33z"/>
<path d="M9931 2293 c1 -32 4 -46 6 -31 3 20 11 28 31 31 l27 4 -27 2 c-21 1
-28 6 -28 20 0 15 8 21 33 24 31 4 31 4 -5 5 l-38 2 1 -57z"/>
<path d="M10033 2295 c0 -33 2 -45 4 -27 2 18 2 45 0 60 -2 15 -4 0 -4 -33z"/>
<path d="M10080 2335 c-29 -35 -7 -95 34 -95 23 0 46 17 46 34 0 5 -9 1 -21
-10 -28 -25 -54 -8 -54 37 0 31 2 34 32 34 17 0 29 3 26 7 -8 14 -50 9 -63 -7z"/>
<path d="M10195 2300 c-9 -28 -14 -54 -11 -57 3 -4 6 1 6 10 0 23 55 23 64 1
4 -9 9 -15 11 -12 7 7 -31 102 -43 106 -5 1 -18 -20 -27 -48z m37 -12 c-18
-18 -33 1 -21 24 11 20 12 20 21 4 7 -12 7 -21 0 -28z"/>
<path d="M10290 2295 c0 -54 0 -55 29 -55 51 0 76 44 51 91 -8 13 -21 19 -45
19 l-35 0 0 -55z m71 24 c16 -31 -3 -69 -36 -69 -23 0 -25 4 -25 45 0 41 2 45
25 45 15 0 29 -8 36 -21z"/>
<path d="M10412 2338 c-28 -28 -4 -98 34 -98 33 0 54 21 54 53 0 40 -15 57
-50 57 -14 0 -31 -5 -38 -12z m66 -10 c29 -29 3 -84 -35 -76 -25 5 -40 52 -23
72 15 19 41 21 58 4z"/>
<path d="M9400 2292 c0 -14 6 -22 16 -22 14 0 15 3 3 18 -7 9 -15 19 -16 21
-2 2 -3 -5 -3 -17z"/>
<path d="M9850 2095 l0 -55 35 0 c37 0 55 20 55 62 0 33 -18 48 -57 48 l-33 0
0 -55z m76 18 c9 -34 -7 -58 -37 -58 -21 0 -24 5 -27 43 -3 41 -2 42 27 42 25
0 32 -5 37 -27z"/>
<path d="M9981 2109 c-7 -23 -15 -48 -17 -58 -5 -13 -4 -13 6 2 6 9 22 17 35
17 13 0 29 -8 34 -17 18 -31 12 3 -9 51 -10 25 -23 46 -28 46 -5 0 -14 -18
-21 -41z m30 -22 c-13 -13 -23 9 -15 35 l7 23 9 -24 c5 -15 5 -28 -1 -34z"/>
<path d="M10408 1973 c6 -2 18 -2 25 0 6 3 1 5 -13 5 -14 0 -19 -2 -12 -5z"/>
<path d="M9442 1938 c-7 -7 -12 -24 -12 -39 0 -47 49 -76 78 -47 20 20 13 32
-8 13 -35 -31 -69 0 -56 51 6 24 11 26 42 21 20 -4 32 -2 29 4 -9 13 -59 11
-73 -3z"/>
<path d="M9550 1931 c-15 -30 -12 -56 10 -76 45 -41 108 24 73 74 -19 27 -68
28 -83 2z m78 -27 c4 -36 -18 -59 -47 -49 -47 15 -32 89 17 83 22 -2 28 -9 30
-34z"/>
<path d="M9671 1893 c1 -65 5 -61 12 10 2 26 1 47 -4 47 -5 0 -9 -26 -8 -57z"/>
<path d="M9739 1910 l-4 -45 -18 33 c-10 19 -21 32 -23 29 -3 -3 7 -25 23 -49
27 -42 28 -43 31 -16 2 15 2 42 0 60 -4 30 -5 28 -9 -12z"/>
<path d="M9781 1893 c1 -32 4 -46 6 -30 4 23 9 27 36 28 l32 1 -30 7 c-43 9
-45 39 -3 44 l33 4 -37 1 -38 2 1 -57z"/>
<path d="M9883 1895 c0 -33 2 -45 4 -27 2 18 2 45 0 60 -2 15 -4 0 -4 -33z"/>
<path d="M9921 1893 c1 -32 4 -46 6 -30 6 35 36 36 59 2 9 -14 20 -25 25 -25
5 0 2 11 -7 25 -13 20 -14 28 -4 40 21 26 4 45 -40 45 l-40 0 1 -57z m73 38
c8 -13 -20 -33 -41 -29 -10 2 -19 11 -21 21 -3 13 3 17 27 17 16 0 32 -4 35
-9z"/>
<path d="M10042 1893 l1 -58 6 45 6 45 13 -42 c7 -24 17 -43 21 -43 10 0 23
42 16 49 -3 2 -5 -1 -5 -7 0 -26 -18 -10 -30 28 -19 57 -30 50 -28 -17z"/>
<path d="M10117 1930 c-3 -11 -1 -18 3 -15 5 3 11 -14 13 -37 3 -38 4 -36 5
15 2 55 -10 77 -21 37z"/>
<path d="M10181 1909 c-7 -23 -15 -48 -17 -58 -5 -13 -4 -13 6 2 14 22 70 24
70 2 0 -8 4 -15 9 -15 5 0 0 25 -12 55 -11 30 -25 55 -32 55 -6 0 -17 -18 -24
-41z m39 -6 c0 -7 -7 -13 -16 -13 -11 0 -14 5 -10 16 3 9 6 21 6 27 0 16 20
-14 20 -30z"/>
<path d="M10282 1938 c-29 -29 -3 -98 37 -98 18 0 41 18 41 33 0 5 -7 1 -16
-8 -23 -22 -47 -15 -58 17 -13 37 8 62 46 54 18 -3 27 -2 23 4 -9 14 -59 12
-73 -2z"/>
<path d="M10406 1918 c-8 -18 -17 -44 -20 -58 -6 -21 -5 -22 4 -7 13 21 58 23
66 2 4 -8 10 -15 14 -15 10 0 -33 110 -43 110 -4 0 -14 -15 -21 -32z m24 -28
c-20 -12 -22 -7 -14 26 7 28 7 28 17 5 8 -17 7 -25 -3 -31z"/>
<path d="M9782 1738 c-7 -7 -12 -26 -12 -43 0 -38 16 -55 52 -55 45 0 65 61
30 93 -22 20 -53 22 -70 5z m69 -19 c18 -34 -4 -71 -39 -67 -23 3 -28 8 -30
37 -5 51 46 73 69 30z"/>
<path d="M9940 1694 l0 -55 37 3 c30 2 38 8 46 31 13 39 -13 77 -53 77 -30 0
-30 -1 -30 -56z m65 1 c0 -36 -3 -40 -27 -43 -27 -3 -28 -2 -28 43 0 45 1 46
28 43 24 -3 27 -7 27 -43z"/>
<path d="M10075 1738 c-27 -76 -34 -102 -21 -85 16 21 55 22 62 2 4 -8 10 -15
14 -15 5 0 -2 25 -13 55 -22 55 -33 66 -42 43z m28 -38 c4 -15 0 -20 -14 -20
-20 0 -23 8 -13 34 7 20 20 13 27 -14z"/>
<path d="M10200 1566 c7 -7 13 -7 20 0 6 6 3 10 -10 10 -13 0 -16 -4 -10 -10z"/>
<path d="M9530 1495 l0 -55 48 2 c43 1 44 2 10 5 -29 3 -38 9 -38 23 0 14 9
20 33 23 l32 4 -32 1 c-25 2 -33 7 -33 21 0 15 8 21 33 24 28 3 26 4 -10 5
l-43 2 0 -55z"/>
<path d="M9655 1527 c15 -26 15 -30 1 -52 -22 -34 -20 -45 3 -15 l19 24 22
-24 21 -25 -17 32 c-17 30 -17 33 1 60 l17 28 -22 -22 -23 -22 -20 22 -19 22
17 -28z"/>
<path d="M9756 1535 c-19 -20 -21 -55 -3 -79 16 -21 68 -19 75 4 4 12 2 13 -9
3 -35 -34 -81 7 -60 53 12 26 39 31 60 12 11 -11 13 -10 9 2 -6 21 -52 24 -72
5z"/>
<path d="M9862 1498 l-2 -58 33 1 c29 2 30 2 5 6 -25 4 -27 9 -31 56 l-3 52
-2 -57z"/>
<path d="M9954 1500 l1 -55 35 0 35 0 1 55 1 55 -6 -50 c-5 -45 -8 -50 -31
-50 -23 0 -26 5 -31 50 l-6 50 1 -55z"/>
<path d="M10064 1535 c-8 -20 12 -43 38 -47 12 -2 23 -9 26 -15 6 -19 -28 -28
-50 -14 -16 10 -19 10 -16 -1 3 -7 19 -13 39 -13 27 0 35 4 37 22 2 16 -4 24
-32 33 -20 6 -36 16 -36 21 0 17 32 22 54 9 19 -12 20 -12 7 3 -17 21 -60 22
-67 2z"/>
<path d="M10181 1509 c-7 -23 -15 -48 -17 -58 -5 -13 -4 -13 6 2 6 9 22 17 35
17 13 0 29 -8 35 -17 9 -15 10 -14 4 7 -12 45 -33 90 -42 90 -5 0 -14 -18 -21
-41z m39 -16 c0 -7 -7 -13 -15 -13 -15 0 -21 31 -8 43 8 8 23 -12 23 -30z"/>
<path d="M10282 1538 c-7 -7 -12 -26 -12 -43 0 -38 16 -55 50 -55 33 0 50 17
50 51 0 49 -56 79 -88 47z m68 -12 c28 -35 -11 -93 -47 -70 -36 22 -23 84 17
84 10 0 23 -7 30 -14z"/>
<path d="M614 2306 c-11 -28 0 -61 21 -61 13 0 22 10 29 33 11 41 36 43 36 2
0 -16 -4 -30 -10 -30 -5 0 -10 -5 -10 -11 0 -16 20 1 30 25 10 27 -5 56 -30
56 -13 0 -22 -10 -28 -32 -4 -17 -13 -33 -20 -36 -16 -5 -16 40 0 56 9 9 9 12
0 12 -7 0 -15 -6 -18 -14z"/>
<path d="M622 2198 c-21 -21 -14 -66 12 -83 28 -19 76 -5 76 22 0 16 -1 16
-13 -1 -9 -12 -23 -17 -42 -14 -25 2 -31 8 -33 32 -5 44 40 63 72 30 9 -8 16
-12 16 -7 0 17 -24 33 -50 33 -14 0 -31 -5 -38 -12z"/>
<path d="M610 2070 c0 -5 17 -10 37 -10 l38 0 -38 -27 c-20 -14 -37 -30 -37
-35 0 -4 24 -7 53 -7 51 2 51 2 12 8 l-40 6 38 29 c20 15 37 32 37 37 0 5 -22
9 -50 9 -27 0 -50 -4 -50 -10z"/>
<path d="M658 1947 c-27 -11 -48 -26 -48 -32 0 -11 90 -49 98 -40 3 2 -3 7
-12 11 -23 9 -20 49 7 67 30 22 12 19 -45 -6z m12 -33 c0 -11 -5 -14 -16 -10
-9 3 -18 6 -20 6 -3 0 -2 5 1 10 10 16 35 12 35 -6z"/>
<path d="M610 1840 c0 -6 19 -19 41 -28 l42 -18 -42 -16 c-57 -23 -52 -38 12
-36 l52 1 -45 6 -45 7 43 13 c23 8 42 18 42 23 0 4 -19 16 -42 26 l-43 17 45
6 45 6 -52 1 c-31 1 -53 -2 -53 -8z"/>
<path d="M611 1706 c4 -5 51 -14 77 -15 8 -1 12 -11 10 -28 -3 -25 -8 -29 -48
-34 l-45 -7 49 2 c54 1 71 21 55 64 -7 18 -16 22 -55 22 -26 0 -45 -2 -43 -4z"/>
<path d="M610 1580 c0 -5 9 -10 20 -10 31 0 28 -57 -2 -63 -13 -2 4 -4 37 -4
42 -1 51 1 30 6 -23 5 -31 12 -33 34 -3 23 0 27 22 27 14 0 26 5 26 10 0 6
-22 10 -50 10 -27 0 -50 -4 -50 -10z"/>
<path d="M661 1408 c-5 -13 -12 -31 -15 -41 -3 -10 -10 -15 -16 -12 -14 9 -13
38 3 54 10 11 9 13 -3 9 -10 -3 -15 -17 -15 -39 0 -27 4 -34 20 -34 13 0 22
10 29 33 5 17 15 32 22 32 17 0 18 -42 2 -59 -11 -11 -10 -13 2 -9 19 6 26 68
8 79 -20 13 -28 11 -37 -13z"/>
<path d="M626 1304 c-19 -18 -21 -65 -4 -82 24 -24 88 -9 88 21 0 5 -7 1 -16
-7 -32 -33 -77 -14 -72 30 2 25 8 29 36 32 26 3 34 -1 41 -20 l10 -23 0 22 c1
38 -54 56 -83 27z"/>
<path d="M661 1168 c-5 -13 -12 -31 -15 -41 -3 -10 -10 -15 -16 -12 -14 9 -13
38 3 54 10 11 9 13 -3 9 -10 -3 -15 -17 -15 -39 0 -27 4 -34 20 -34 13 0 22
10 29 33 5 17 15 32 22 32 17 0 18 -42 2 -59 -11 -11 -10 -13 2 -9 19 6 26 68
8 79 -20 13 -28 11 -37 -13z"/>
<path d="M686 1064 c-13 -9 -23 -11 -30 -4 -5 5 -18 10 -28 10 -15 0 -18 -8
-18 -45 l0 -45 56 0 c32 0 53 4 49 9 -3 6 -15 8 -26 6 -33 -7 -35 24 -3 50 32
25 31 42 0 19z m-38 -36 c2 -16 -3 -28 -12 -31 -13 -5 -16 1 -16 29 0 41 23
43 28 2z"/>
<path d="M650 941 c40 -5 45 -9 48 -33 3 -28 1 -30 -68 -42 -14 -2 -3 -3 24
-2 54 1 71 21 55 64 -7 19 -15 22 -56 20 l-48 -1 45 -6z"/>
<path d="M617 823 c-10 -9 -8 -56 2 -72 9 -14 62 -18 81 -6 5 3 10 14 10 23 0
14 -2 14 -13 -2 -19 -26 -71 -18 -75 12 -2 13 2 30 8 38 12 14 0 21 -13 7z"/>
<path d="M692 810 c14 -22 24 -19 15 5 -4 8 -11 15 -17 15 -6 0 -6 -7 2 -20z"/>
<path d="M612 672 l-2 -43 52 3 c48 3 51 5 53 31 0 15 -3 33 -7 40 -4 7 -8 -5
-8 -26 0 -31 -3 -38 -17 -35 -12 2 -20 16 -24 38 l-6 35 -2 -37 c-1 -26 -6
-38 -15 -38 -10 0 -16 13 -19 38 l-4 37 -1 -43z"/>
<path d="M617 593 c-4 -3 -7 -24 -7 -45 l0 -38 58 2 c37 1 45 3 24 5 -29 4
-33 8 -28 25 9 37 -25 74 -47 51z m33 -43 c0 -20 -5 -30 -15 -30 -10 0 -15 10
-15 30 0 20 5 30 15 30 10 0 15 -10 15 -30z"/>
<path d="M680 585 c-7 -8 -8 -15 -2 -15 5 0 15 7 22 15 7 8 8 15 2 15 -5 0
-15 -7 -22 -15z"/>
</g>
</svg>
